<svg width="24" height="24" viewBox="0 0 24 24" fill="none" xmlns="http://www.w3.org/2000/svg">
<path fill-rule="evenodd" clip-rule="evenodd" d="M11.9947 4.40002C7.79992 4.40002 4.39941 7.80053 4.39941 11.9953C4.39941 16.19 7.79992 19.5905 11.9947 19.5905C12.5469 19.5905 12.9947 20.0382 12.9947 20.5905C12.9947 21.1428 12.5469 21.5905 11.9947 21.5905C6.69535 21.5905 2.39941 17.2946 2.39941 11.9953C2.39941 6.69596 6.69535 2.40002 11.9947 2.40002C17.294 2.40002 21.5899 6.69596 21.5899 11.9953C21.5899 12.5475 21.1422 12.9953 20.5899 12.9953C20.0376 12.9953 19.5899 12.5475 19.5899 11.9953C19.5899 7.80053 16.1894 4.40002 11.9947 4.40002ZM16.943 19.6198C16.943 20.1122 17.3459 20.5151 17.8383 20.5151C18.3307 20.5151 18.7336 20.1122 18.7336 19.6198V17.8291H20.5243C21.0167 17.8291 21.4196 17.4262 21.4196 16.9338C21.4196 16.4413 21.0167 16.0384 20.5243 16.0384H18.7336V14.2477C18.7336 13.7553 18.3307 13.3524 17.8383 13.3524C17.3459 13.3524 16.943 13.7553 16.943 14.2477V16.0384H15.1523C14.6598 16.0384 14.2569 16.4413 14.2569 16.9338C14.2569 17.4262 14.6598 17.8291 15.1523 17.8291H16.943V19.6198ZM12.8543 9.41668C12.3796 9.41668 11.9948 9.03186 11.9948 8.55716C11.9948 8.08245 12.3796 7.69763 12.8543 7.69763C13.329 7.69763 13.7139 8.08245 13.7139 8.55716C13.7139 9.03186 13.329 9.41668 12.8543 9.41668ZM6.83759 8.55716C6.83759 9.03186 7.22241 9.41668 7.69712 9.41668C8.17182 9.41668 8.55664 9.03186 8.55664 8.55716C8.55664 8.08245 8.17182 7.69763 7.69712 7.69763C7.22241 7.69763 6.83759 8.08245 6.83759 8.55716ZM11.5643 11.3507C11.9204 11.3507 12.209 11.6393 12.209 11.9954C12.209 12.3514 11.9204 12.64 11.5643 12.64L8.12625 12.64C7.77022 12.64 7.4816 12.3514 7.4816 11.9953C7.4816 11.6393 7.77022 11.3507 8.12625 11.3507H11.5643Z" fill="#292929"/>
</svg>
