<svg width="24" height="24" viewBox="0 0 24 24" fill="none" xmlns="http://www.w3.org/2000/svg">
<g clip-path="url(#clip0_113_8860)">
<path d="M14.06 9.02L14.98 9.94L5.92 19H5V18.08L14.06 9.02ZM17.66 3C17.41 3 17.15 3.1 16.96 3.29L15.13 5.12L18.88 8.87L20.71 7.04C21.1 6.65 21.1 6.02 20.71 5.63L18.37 3.29C18.17 3.09 17.92 3 17.66 3ZM14.06 6.19L3.14645 17.1036C3.05268 17.1973 3 17.3245 3 17.4571V20.5C3 20.7761 3.22386 21 3.5 21H6.54289C6.6755 21 6.80268 20.9473 6.89645 20.8536L17.81 9.94L14.06 6.19Z" fill="#292929"/>
</g>
<defs>
<clipPath id="clip0_113_8860">
<rect width="24" height="24" fill="white"/>
</clipPath>
</defs>
</svg>
