<svg width="40" height="40" viewBox="0 0 40 40" fill="none" xmlns="http://www.w3.org/2000/svg">
<rect width="40" height="40" rx="20" fill="#FFD54A"/>
<path d="M20 12C20 13.1046 19.1046 14 18 14C16.8954 14 16 13.1046 16 12C16 10.8954 16.8954 10 18 10C19.1046 10 20 10.8954 20 12Z" fill="black"/>
<path d="M32 12C32 13.1046 31.1046 14 30 14C28.8954 14 28 13.1046 28 12C28 10.8954 28.8954 10 30 10C31.1046 10 32 10.8954 32 12Z" fill="black"/>
<path fill-rule="evenodd" clip-rule="evenodd" d="M19.5 20C19.5 19.1716 20.1716 18.5 21 18.5L29 18.5C29.8284 18.5 30.5 19.1716 30.5 20C30.5 20.8284 29.8284 21.5 29 21.5L21 21.5C20.1716 21.5 19.5 20.8284 19.5 20Z" fill="black"/>
</svg>
