<svg width="40" height="40" viewBox="0 0 40 40" fill="none" xmlns="http://www.w3.org/2000/svg">
<rect width="40" height="40" rx="20" fill="#6889FF"/>
<path d="M16 16C16 17.1046 15.1046 18 14 18C12.8954 18 12 17.1046 12 16C12 14.8954 12.8954 14 14 14C15.1046 14 16 14.8954 16 16Z" fill="black"/>
<path d="M28 16C28 17.1046 27.1046 18 26 18C24.8954 18 24 17.1046 24 16C24 14.8954 24.8954 14 26 14C27.1046 14 28 14.8954 28 16Z" fill="black"/>
<path fill-rule="evenodd" clip-rule="evenodd" d="M28.1144 27.004C28.6689 26.3885 28.6195 25.4401 28.004 24.8856C24.6622 21.8748 21.2477 21.1624 18.3092 21.6324C15.451 22.0895 13.1738 23.6412 11.9133 24.9661C11.3422 25.5663 11.3659 26.5157 11.9661 27.0867C12.5663 27.6577 13.5157 27.6341 14.0867 27.0339C14.9801 26.0949 16.6874 24.9299 18.7831 24.5947C20.7984 24.2724 23.307 24.6919 25.996 27.1144C26.6115 27.6689 27.5599 27.6195 28.1144 27.004Z" fill="black"/>
</svg>
