<svg width="40" height="40" viewBox="0 0 40 40" fill="none" xmlns="http://www.w3.org/2000/svg">
<rect width="40" height="40" rx="20" fill="#FF64AE"/>
<path d="M16 17C16 18.1046 15.1046 19 14 19C12.8954 19 12 18.1046 12 17C12 15.8954 12.8954 15 14 15C15.1046 15 16 15.8954 16 17Z" fill="black"/>
<path d="M28 17C28 18.1046 27.1046 19 26 19C24.8954 19 24 18.1046 24 17C24 15.8954 24.8954 15 26 15C27.1046 15 28 15.8954 28 17Z" fill="black"/>
<path fill-rule="evenodd" clip-rule="evenodd" d="M28.1144 22.996C28.6689 23.6115 28.6195 24.5599 28.004 25.1144C24.6622 28.1252 21.2477 28.8376 18.3092 28.3676C15.451 27.9105 13.1738 26.3588 11.9133 25.0339C11.3422 24.4337 11.3659 23.4843 11.9661 22.9133C12.5663 22.3423 13.5157 22.3659 14.0867 22.9661C14.9801 23.9051 16.6874 25.0701 18.7831 25.4053C20.7984 25.7276 23.307 25.3081 25.996 22.8856C26.6115 22.3311 27.5599 22.3805 28.1144 22.996Z" fill="black"/>
</svg>
