<svg width="24" height="24" viewBox="0 0 24 24" fill="none" xmlns="http://www.w3.org/2000/svg">
<path d="M16.8782 6.60896C16.5269 6.3631 16.0519 6.45583 15.7825 6.78947C15.3363 7.33684 14.7413 7.57895 14.1463 7.57895C13.0625 7.57895 12 6.75789 12 5.47368V3.61132C12 2.86956 11.2352 2.40973 10.6117 2.81165C8.20206 4.36513 3.5 8.09859 3.5 13.5789C3.5 18.2316 7.30375 22 12 22C16.6962 22 20.5 18.2316 20.5 13.5789C20.5 10.7277 19.0675 8.14081 16.8782 6.60896ZM12 19.8947C10.8313 19.8947 9.875 18.9789 9.875 17.8526C9.875 17.3158 10.0875 16.8105 10.4913 16.4211L12 14.9474L13.5194 16.4211C13.9125 16.8105 14.125 17.3158 14.125 17.8526C14.125 18.9789 13.1687 19.8947 12 19.8947ZM16.2075 18.3158C16.25 17.9368 16.4412 16.3263 15.0069 14.9263L12.6974 12.6788C12.3092 12.3009 11.6908 12.3009 11.3026 12.6788L8.99312 14.9263C7.54813 16.3368 7.75 17.9579 7.7925 18.3158C6.46438 17.1579 5.625 15.4632 5.625 13.5789C5.625 10.2526 7.88812 7.63158 9.90687 5.94737C10.1512 8.04211 11.9575 9.68421 14.1463 9.68421C14.975 9.68421 15.7825 9.44211 16.4625 8.98947C17.6738 10.1895 18.375 11.8421 18.375 13.5789C18.375 15.4632 17.5356 17.1579 16.2075 18.3158Z" fill="#292929"/>
</svg>
