<svg width="160" height="160" viewBox="0 0 160 160" fill="none" xmlns="http://www.w3.org/2000/svg">
<rect x="35.2002" y="39.2" width="88" height="73.6" fill="white"/>
<rect x="42.4004" y="53.5999" width="30.4" height="30.4" rx="15.2" fill="#FF64AE"/>
<path d="M54.5605 66.5198C54.5605 67.3592 53.88 68.0398 53.0405 68.0398C52.201 68.0398 51.5205 67.3592 51.5205 66.5198C51.5205 65.6803 52.201 64.9998 53.0405 64.9998C53.88 64.9998 54.5605 65.6803 54.5605 66.5198Z" fill="black"/>
<path d="M63.6806 66.5198C63.6806 67.3592 63.0001 68.0398 62.1606 68.0398C61.3212 68.0398 60.6406 67.3592 60.6406 66.5198C60.6406 65.6803 61.3212 64.9998 62.1606 64.9998C63.0001 64.9998 63.6806 65.6803 63.6806 66.5198Z" fill="black"/>
<path fill-rule="evenodd" clip-rule="evenodd" d="M63.7676 71.0769C64.189 71.5447 64.1514 72.2655 63.6837 72.6869C61.1439 74.9751 58.5489 75.5165 56.3157 75.1593C54.1434 74.8119 52.4127 73.6327 51.4547 72.6257C51.0207 72.1696 51.0387 71.448 51.4948 71.014C51.951 70.5801 52.6726 70.598 53.1065 71.0542C53.7855 71.7678 55.0831 72.6532 56.6758 72.908C58.2074 73.1529 60.114 72.8341 62.1576 70.993C62.6253 70.5716 63.3462 70.6091 63.7676 71.0769Z" fill="black"/>
<rect x="57.6001" y="73.5999" width="30.4" height="30.4" rx="15.2" fill="#6889FF"/>
<path d="M69.7602 85.7597C69.7602 86.5992 69.0797 87.2797 68.2402 87.2797C67.4007 87.2797 66.7202 86.5992 66.7202 85.7597C66.7202 84.9203 67.4007 84.2397 68.2402 84.2397C69.0797 84.2397 69.7602 84.9203 69.7602 85.7597Z" fill="black"/>
<path d="M78.8803 85.7597C78.8803 86.5992 78.1998 87.2797 77.3603 87.2797C76.5209 87.2797 75.8403 86.5992 75.8403 85.7597C75.8403 84.9203 76.5209 84.2397 77.3603 84.2397C78.1998 84.2397 78.8803 84.9203 78.8803 85.7597Z" fill="black"/>
<path fill-rule="evenodd" clip-rule="evenodd" d="M78.9673 94.1228C79.3887 93.655 79.3512 92.9342 78.8834 92.5128C76.3436 90.2246 73.7486 89.6832 71.5154 90.0404C69.3431 90.3878 67.6124 91.567 66.6544 92.574C66.2204 93.0301 66.2384 93.7517 66.6946 94.1857C67.1507 94.6196 67.8723 94.6017 68.3063 94.1455C68.9852 93.4319 70.2828 92.5465 71.8755 92.2917C73.4071 92.0468 75.3137 92.3656 77.3573 94.2067C77.825 94.6281 78.5459 94.5906 78.9673 94.1228Z" fill="black"/>
<rect x="85.6001" y="49.5999" width="30.4" height="30.4" rx="15.2" fill="#FFD54A"/>
<path d="M100.8 58.72C100.8 59.5594 100.12 60.24 99.2803 60.24C98.4408 60.24 97.7603 59.5594 97.7603 58.72C97.7603 57.8805 98.4408 57.2 99.2803 57.2C100.12 57.2 100.8 57.8805 100.8 58.72Z" fill="black"/>
<path d="M109.92 58.72C109.92 59.5594 109.239 60.24 108.4 60.24C107.56 60.24 106.88 59.5594 106.88 58.72C106.88 57.8805 107.56 57.2 108.4 57.2C109.239 57.2 109.92 57.8805 109.92 58.72Z" fill="black"/>
<path fill-rule="evenodd" clip-rule="evenodd" d="M100.42 64.7999C100.42 64.1703 100.93 63.6599 101.56 63.6599L107.64 63.6599C108.27 63.6599 108.78 64.1703 108.78 64.7999C108.78 65.4295 108.27 65.9399 107.64 65.9399L101.56 65.9399C100.93 65.9399 100.42 65.4295 100.42 64.7999Z" fill="black"/>
<path d="M121.52 15.3454H116.28V11.6726C116.28 8.77263 113.922 6.3999 111.04 6.3999C108.158 6.3999 105.8 8.77263 105.8 11.6726V15.3454H53.4002V11.6726C53.4002 8.77263 51.0422 6.3999 48.1602 6.3999C45.2782 6.3999 42.9202 8.77263 42.9202 11.6726V15.3454H37.6802C31.9162 15.3454 27.2002 20.0908 27.2002 25.8908V110.254C27.2002 116.054 31.9162 120.8 37.6802 120.8H121.52C127.284 120.8 132 116.054 132 110.254V25.8908C132 20.0908 127.284 15.3454 121.52 15.3454ZM116.28 110.254H42.9202C40.0382 110.254 37.6802 107.882 37.6802 104.982V41.709H121.52V104.982C121.52 107.882 119.162 110.254 116.28 110.254Z" fill="#FFD54A"/>
<path d="M33.693 139.066L30.7938 149.779H27.165L25.4754 142.829L23.7282 149.779H20.1186L17.2002 139.066H20.4834L22.0002 146.726L23.805 139.066H27.2802L29.1042 146.688L30.6018 139.066H33.693Z" fill="black"/>
<path d="M45.4282 144.25C45.4282 144.557 45.409 144.877 45.3706 145.21H37.9402C37.9914 145.875 38.2026 146.387 38.5738 146.746C38.9578 147.091 39.425 147.264 39.9754 147.264C40.7946 147.264 41.3642 146.918 41.6842 146.227H45.1786C44.9994 146.931 44.673 147.565 44.1994 148.128C43.7386 148.691 43.1562 149.133 42.4522 149.453C41.7482 149.773 40.961 149.933 40.0906 149.933C39.041 149.933 38.1066 149.709 37.2874 149.261C36.4682 148.813 35.8282 148.173 35.3674 147.341C34.9066 146.509 34.6762 145.536 34.6762 144.422C34.6762 143.309 34.9002 142.336 35.3482 141.504C35.809 140.672 36.449 140.032 37.2682 139.584C38.0874 139.136 39.0282 138.912 40.0906 138.912C41.1274 138.912 42.049 139.13 42.8554 139.565C43.6618 140 44.289 140.621 44.737 141.427C45.1978 142.234 45.4282 143.174 45.4282 144.25ZM42.0682 143.386C42.0682 142.822 41.8762 142.374 41.4922 142.042C41.1082 141.709 40.6282 141.542 40.0522 141.542C39.5018 141.542 39.0346 141.702 38.6506 142.022C38.2794 142.342 38.049 142.797 37.9594 143.386H42.0682Z" fill="black"/>
<path d="M57.6435 144.25C57.6435 144.557 57.6243 144.877 57.5859 145.21H50.1555C50.2067 145.875 50.4179 146.387 50.7891 146.746C51.1731 147.091 51.6403 147.264 52.1907 147.264C53.0099 147.264 53.5795 146.918 53.8995 146.227H57.3939C57.2147 146.931 56.8883 147.565 56.4147 148.128C55.9539 148.691 55.3715 149.133 54.6675 149.453C53.9635 149.773 53.1763 149.933 52.3059 149.933C51.2563 149.933 50.3219 149.709 49.5027 149.261C48.6835 148.813 48.0435 148.173 47.5827 147.341C47.1219 146.509 46.8915 145.536 46.8915 144.422C46.8915 143.309 47.1155 142.336 47.5635 141.504C48.0243 140.672 48.6643 140.032 49.4835 139.584C50.3027 139.136 51.2435 138.912 52.3059 138.912C53.3427 138.912 54.2643 139.13 55.0707 139.565C55.8771 140 56.5043 140.621 56.9523 141.427C57.4131 142.234 57.6435 143.174 57.6435 144.25ZM54.2835 143.386C54.2835 142.822 54.0915 142.374 53.7075 142.042C53.3235 141.709 52.8435 141.542 52.2675 141.542C51.7171 141.542 51.2499 141.702 50.8659 142.022C50.4947 142.342 50.2643 142.797 50.1747 143.386H54.2835Z" fill="black"/>
<path d="M66.3067 149.779L63.0427 145.286V149.779H59.7595V135.571H63.0427V143.424L66.2875 139.066H70.3387L65.8843 144.442L70.3771 149.779H66.3067Z" fill="black"/>
<path d="M85.6827 138.95C87.0139 138.95 88.0699 139.354 88.8507 140.16C89.6443 140.966 90.0411 142.086 90.0411 143.52V149.779H86.7771V143.962C86.7771 143.27 86.5915 142.739 86.2203 142.368C85.8619 141.984 85.3627 141.792 84.7227 141.792C84.0827 141.792 83.5771 141.984 83.2059 142.368C82.8475 142.739 82.6683 143.27 82.6683 143.962V149.779H79.4043V143.962C79.4043 143.27 79.2187 142.739 78.8475 142.368C78.4891 141.984 77.9899 141.792 77.3499 141.792C76.7099 141.792 76.2043 141.984 75.8331 142.368C75.4747 142.739 75.2955 143.27 75.2955 143.962V149.779H72.0123V139.066H75.2955V140.41C75.6283 139.962 76.0635 139.61 76.6011 139.354C77.1387 139.085 77.7467 138.95 78.4251 138.95C79.2315 138.95 79.9483 139.123 80.5755 139.469C81.2155 139.814 81.7147 140.307 82.0731 140.947C82.4443 140.358 82.9499 139.878 83.5899 139.507C84.2299 139.136 84.9275 138.95 85.6827 138.95Z" fill="black"/>
<path d="M111.301 146.995V149.779H109.631C108.441 149.779 107.513 149.491 106.847 148.915C106.181 148.326 105.849 147.373 105.849 146.054V141.792H104.543V139.066H105.849V136.454H109.132V139.066H111.282V141.792H109.132V146.093C109.132 146.413 109.209 146.643 109.362 146.784C109.516 146.925 109.772 146.995 110.13 146.995H111.301Z" fill="black"/>
<path d="M115.165 137.952C114.59 137.952 114.116 137.786 113.745 137.453C113.386 137.107 113.207 136.685 113.207 136.186C113.207 135.674 113.386 135.251 113.745 134.918C114.116 134.573 114.59 134.4 115.165 134.4C115.729 134.4 116.189 134.573 116.548 134.918C116.919 135.251 117.105 135.674 117.105 136.186C117.105 136.685 116.919 137.107 116.548 137.453C116.189 137.786 115.729 137.952 115.165 137.952ZM116.798 139.066V149.779H113.514V139.066H116.798Z" fill="black"/>
<path d="M138.698 138.95C139.952 138.95 140.951 139.36 141.693 140.179C142.448 140.986 142.826 142.099 142.826 143.52V149.779H139.562V143.962C139.562 143.245 139.376 142.688 139.005 142.291C138.634 141.894 138.135 141.696 137.507 141.696C136.88 141.696 136.381 141.894 136.01 142.291C135.639 142.688 135.453 143.245 135.453 143.962V149.779H132.17V139.066H135.453V140.486C135.786 140.013 136.234 139.642 136.797 139.373C137.36 139.091 137.994 138.95 138.698 138.95Z" fill="black"/>
<path d="M124.438 149.933C123.388 149.933 122.441 149.709 121.596 149.261C120.764 148.813 120.105 148.173 119.619 147.341C119.145 146.509 118.908 145.536 118.908 144.422C118.908 143.321 119.151 142.355 119.638 141.523C120.124 140.678 120.79 140.032 121.635 139.584C122.479 139.136 123.427 138.912 124.476 138.912C125.526 138.912 126.473 139.136 127.318 139.584C128.163 140.032 128.828 140.678 129.315 141.523C129.801 142.355 130.044 143.321 130.044 144.422C130.044 145.523 129.795 146.496 129.295 147.341C128.809 148.173 128.137 148.813 127.279 149.261C126.435 149.709 125.487 149.933 124.438 149.933ZM124.438 147.091C125.065 147.091 125.596 146.861 126.031 146.4C126.479 145.939 126.703 145.28 126.703 144.422C126.703 143.565 126.486 142.905 126.051 142.445C125.628 141.984 125.103 141.753 124.476 141.753C123.836 141.753 123.305 141.984 122.883 142.445C122.46 142.893 122.249 143.552 122.249 144.422C122.249 145.28 122.454 145.939 122.863 146.4C123.286 146.861 123.811 147.091 124.438 147.091Z" fill="#6889FF"/>
<path d="M97.5985 149.933C96.5489 149.933 95.6016 149.709 94.7568 149.261C93.9248 148.813 93.2656 148.173 92.7792 147.341C92.3056 146.509 92.0688 145.536 92.0688 144.422C92.0688 143.321 92.312 142.355 92.7984 141.523C93.2849 140.678 93.9505 140.032 94.7953 139.584C95.6401 139.136 96.5873 138.912 97.6369 138.912C98.6865 138.912 99.6337 139.136 100.478 139.584C101.323 140.032 101.989 140.678 102.475 141.523C102.962 142.355 103.205 143.321 103.205 144.422C103.205 145.523 102.955 146.496 102.456 147.341C101.97 148.173 101.298 148.813 100.44 149.261C99.5953 149.709 98.6481 149.933 97.5985 149.933ZM97.5985 147.091C98.2257 147.091 98.7569 146.861 99.1921 146.4C99.6401 145.939 99.8641 145.28 99.8641 144.422C99.8641 143.565 99.6465 142.905 99.2113 142.445C98.7889 141.984 98.2641 141.753 97.6369 141.753C96.9969 141.753 96.4657 141.984 96.0433 142.445C95.6209 142.893 95.4097 143.552 95.4097 144.422C95.4097 145.28 95.6144 145.939 96.024 146.4C96.4464 146.861 96.9713 147.091 97.5985 147.091Z" fill="#FF64AE"/>
</svg>
