<svg width="260" height="120" viewBox="0 0 260 120" fill="none" xmlns="http://www.w3.org/2000/svg">
<rect width="260" height="120" fill="white"/>
<path d="M102.899 90.1005C108.367 95.5678 108.367 104.432 102.899 109.899C97.4322 115.367 88.5678 115.367 83.1005 109.899C77.6332 104.432 77.6332 95.5678 83.1005 90.1005C88.5678 84.6332 97.4322 84.6332 102.899 90.1005Z" fill="#FF64AE"/>
<circle cx="118" cy="22" r="6" fill="#6889FF"/>
<circle cx="194" cy="71" r="8" fill="#6889FF"/>
<circle cx="88" cy="29" r="10" fill="#FFD54A"/>
<rect x="54" y="28" width="43.5072" height="43.5072" rx="21.7536" fill="#6889FF"/>
<path d="M71.4025 45.4029C71.4025 46.6043 70.4285 47.5783 69.2271 47.5783C68.0257 47.5783 67.0518 46.6043 67.0518 45.4029C67.0518 44.2015 68.0257 43.2275 69.2271 43.2275C70.4285 43.2275 71.4025 44.2015 71.4025 45.4029Z" fill="black"/>
<path d="M84.4552 45.4029C84.4552 46.6043 83.4813 47.5783 82.2799 47.5783C81.0784 47.5783 80.1045 46.6043 80.1045 45.4029C80.1045 44.2015 81.0784 43.2275 82.2799 43.2275C83.4813 43.2275 84.4552 44.2015 84.4552 45.4029Z" fill="black"/>
<path fill-rule="evenodd" clip-rule="evenodd" d="M84.58 57.3716C85.1831 56.7022 85.1294 55.6706 84.4599 55.0675C80.8251 51.7927 77.1112 51.0178 73.9151 51.529C70.8062 52.0263 68.3293 53.714 66.9583 55.155C66.3372 55.8078 66.3629 56.8405 67.0157 57.4616C67.6685 58.0827 68.7013 58.057 69.3223 57.4042C70.294 56.3829 72.1511 55.1157 74.4304 54.7511C76.6225 54.4005 79.3511 54.8568 82.2758 57.4917C82.9452 58.0949 83.9769 58.0411 84.58 57.3716Z" fill="black"/>
<path d="M138.033 56.2678C135.395 59.6158 130.076 57.7254 130.076 53.4207V49.9361C130.076 48.114 128.087 47.0208 126.612 48.0229C121.404 51.5759 112.196 59.5019 112.196 70.9581C112.196 77.6086 115.683 83.4164 120.89 86.5823C119.303 84.2591 118.521 81.321 119.08 78.2008C119.504 75.8321 120.756 73.6911 122.455 72.0057L128.512 65.9247C129.383 65.0592 130.769 65.0592 131.641 65.9247L137.742 72.0514C139.396 73.714 140.648 75.8093 141.05 78.1552C141.609 81.2527 140.893 84.1679 139.329 86.4912C143.553 83.8719 146.682 79.5217 147.621 74.42C148.984 66.9724 145.811 59.9118 140.424 55.9717C139.687 55.4023 138.636 55.5162 138.033 56.2678Z" fill="#FFD54A"/>
<path d="M130.079 70.7304L125.542 75.2856C124.514 76.3333 123.709 77.6316 123.463 79.0892C122.793 83.2799 126.011 86.9012 130.079 86.9012C134.147 86.9012 137.365 83.2799 136.695 79.1119C136.449 77.6543 135.667 76.3333 134.616 75.3084L130.079 70.7304Z" fill="#FFD54A"/>
<path fill-rule="evenodd" clip-rule="evenodd" d="M133.366 17.0674L161.011 38.2136V34.0653C161.011 31.6224 162.992 29.6422 165.434 29.6422C167.877 29.6422 169.858 31.6224 169.858 34.0653V45.1922L180.688 53.6793C182.63 55.201 182.982 58.0036 181.476 59.958C179.961 61.9251 177.137 62.29 175.172 60.7727L169.858 56.6707V99.6422C169.858 102.404 167.619 104.642 164.858 104.642H95.5344C92.773 104.642 90.5344 102.404 90.5344 99.6422V56.6707L85.185 60.7697C83.2348 62.2641 80.444 61.9033 78.938 59.9621C77.4242 58.011 77.7806 55.2018 79.7337 53.6904L127.039 17.085C128.9 15.6449 131.497 15.6377 133.366 17.0674ZM99.381 95.7136V50.1422L130.197 26.1708L161.012 50.1422V95.7136H99.381Z" fill="#FFD54A"/>
<circle cx="12.5" cy="12.5" r="12.5" transform="matrix(1 0 0 -1 46 80)" fill="url(#paint0_linear_157_16519)"/>
<circle cx="210.5" cy="29.5" r="7.5" fill="#FFD54A"/>
<circle cx="53.5" cy="16.5" r="7.5" fill="url(#paint1_linear_157_16519)"/>
<circle cx="7.5" cy="7.5" r="7.5" transform="matrix(1 0 0 -1 206 101)" fill="url(#paint2_linear_157_16519)"/>
<circle cx="38.5" cy="83.5" r="7.5" fill="#FFD54A"/>
<circle cx="223" cy="53" r="10" fill="url(#paint3_linear_157_16519)"/>
<circle cx="179" cy="13" r="9" fill="#FF64AE"/>
<circle cx="170" cy="22" r="6" fill="url(#paint4_linear_157_16519)"/>
<rect x="165" y="40" width="32" height="32" rx="16" fill="#FF64AE"/>
<path d="M177.8 53.6C177.8 54.4837 177.083 55.2 176.2 55.2C175.316 55.2 174.6 54.4837 174.6 53.6C174.6 52.7163 175.316 52 176.2 52C177.083 52 177.8 52.7163 177.8 53.6Z" fill="black"/>
<path d="M187.4 53.6C187.4 54.4837 186.684 55.2 185.8 55.2C184.917 55.2 184.2 54.4837 184.2 53.6C184.2 52.7163 184.917 52 185.8 52C186.684 52 187.4 52.7163 187.4 53.6Z" fill="black"/>
<path fill-rule="evenodd" clip-rule="evenodd" d="M187.492 58.3968C187.935 58.8892 187.896 59.6479 187.403 60.0916C184.73 62.5002 181.998 63.0701 179.648 62.6941C177.361 62.3284 175.539 61.0871 174.531 60.0271C174.074 59.547 174.093 58.7874 174.573 58.3306C175.053 57.8738 175.813 57.8927 176.27 58.3729C176.984 59.124 178.35 60.0561 180.027 60.3242C181.639 60.5821 183.646 60.2465 185.797 58.3085C186.289 57.8649 187.048 57.9044 187.492 58.3968Z" fill="black"/>
<circle cx="157" cy="91" r="10" transform="rotate(90 157 91)" fill="url(#paint5_linear_157_16519)"/>
<circle cx="147.5" cy="43.5" r="7.5" fill="url(#paint6_linear_157_16519)"/>
<defs>
<linearGradient id="paint0_linear_157_16519" x1="12.5" y1="0" x2="12.5" y2="25" gradientUnits="userSpaceOnUse">
<stop stop-color="#FF64AE"/>
<stop offset="1" stop-color="#FF64AE" stop-opacity="0"/>
</linearGradient>
<linearGradient id="paint1_linear_157_16519" x1="53.5" y1="9" x2="53.5" y2="24" gradientUnits="userSpaceOnUse">
<stop stop-color="#6889FF"/>
<stop offset="1" stop-color="#FF64AE" stop-opacity="0.54"/>
</linearGradient>
<linearGradient id="paint2_linear_157_16519" x1="7.5" y1="0" x2="7.5" y2="15" gradientUnits="userSpaceOnUse">
<stop stop-color="#6889FF"/>
<stop offset="1" stop-color="#FF64AE" stop-opacity="0.54"/>
</linearGradient>
<linearGradient id="paint3_linear_157_16519" x1="223" y1="43" x2="223" y2="63" gradientUnits="userSpaceOnUse">
<stop stop-color="#FF64AE"/>
<stop offset="1" stop-color="#FFD54A"/>
</linearGradient>
<linearGradient id="paint4_linear_157_16519" x1="170" y1="16" x2="170" y2="28" gradientUnits="userSpaceOnUse">
<stop stop-color="#6889FF" stop-opacity="0"/>
<stop offset="1" stop-color="#6889FF"/>
</linearGradient>
<linearGradient id="paint5_linear_157_16519" x1="157" y1="81" x2="157" y2="101" gradientUnits="userSpaceOnUse">
<stop stop-color="#6889FF"/>
<stop offset="1" stop-color="#6889FF" stop-opacity="0"/>
</linearGradient>
<linearGradient id="paint6_linear_157_16519" x1="147.5" y1="36" x2="147.5" y2="51" gradientUnits="userSpaceOnUse">
<stop stop-color="#FFD54A" stop-opacity="0.48"/>
<stop offset="1" stop-color="#FFD54A"/>
</linearGradient>
</defs>
</svg>
