<svg width="158" height="20" viewBox="0 0 158 20" fill="none" xmlns="http://www.w3.org/2000/svg">
<path d="M21.116 5.832L17.492 19.224H12.956L10.844 10.536L8.66 19.224H4.148L0.5 5.832H4.604L6.5 15.408L8.756 5.832H13.1L15.38 15.36L17.252 5.832H21.116Z" fill="black"/>
<path d="M35.7851 12.312C35.7851 12.696 35.7611 13.096 35.7131 13.512H26.4251C26.4891 14.344 26.7531 14.984 27.2171 15.432C27.6971 15.864 28.2811 16.08 28.9691 16.08C29.9931 16.08 30.7051 15.648 31.1051 14.784H35.4731C35.2491 15.664 34.8411 16.456 34.2491 17.16C33.6731 17.864 32.9451 18.416 32.0651 18.816C31.1851 19.216 30.2011 19.416 29.1131 19.416C27.8011 19.416 26.6331 19.136 25.6091 18.576C24.5851 18.016 23.7851 17.216 23.2091 16.176C22.6331 15.136 22.3451 13.92 22.3451 12.528C22.3451 11.136 22.6251 9.92 23.1851 8.88C23.7611 7.84 24.5611 7.04 25.5851 6.48C26.6091 5.92 27.7851 5.64 29.1131 5.64C30.4091 5.64 31.5611 5.912 32.5691 6.456C33.5771 7 34.3611 7.776 34.9211 8.784C35.4971 9.792 35.7851 10.968 35.7851 12.312ZM31.5851 11.232C31.5851 10.528 31.3451 9.968 30.8651 9.552C30.3851 9.136 29.7851 8.928 29.0651 8.928C28.3771 8.928 27.7931 9.128 27.3131 9.528C26.8491 9.928 26.5611 10.496 26.4491 11.232H31.5851Z" fill="black"/>
<path d="M51.0541 12.312C51.0541 12.696 51.0301 13.096 50.9821 13.512H41.6941C41.7581 14.344 42.0221 14.984 42.4861 15.432C42.9661 15.864 43.5501 16.08 44.2381 16.08C45.2621 16.08 45.9741 15.648 46.3741 14.784H50.7421C50.5181 15.664 50.1101 16.456 49.5181 17.16C48.9421 17.864 48.2141 18.416 47.3341 18.816C46.4541 19.216 45.4701 19.416 44.3821 19.416C43.0701 19.416 41.9021 19.136 40.8781 18.576C39.8541 18.016 39.0541 17.216 38.4781 16.176C37.9021 15.136 37.6141 13.92 37.6141 12.528C37.6141 11.136 37.8941 9.92 38.4541 8.88C39.0301 7.84 39.8301 7.04 40.8541 6.48C41.8781 5.92 43.0541 5.64 44.3821 5.64C45.6781 5.64 46.8301 5.912 47.8381 6.456C48.8461 7 49.6301 7.776 50.1901 8.784C50.7661 9.792 51.0541 10.968 51.0541 12.312ZM46.8541 11.232C46.8541 10.528 46.6141 9.968 46.1341 9.552C45.6541 9.136 45.0541 8.928 44.3341 8.928C43.6461 8.928 43.0621 9.128 42.5821 9.528C42.1181 9.928 41.8301 10.496 41.7181 11.232H46.8541Z" fill="black"/>
<path d="M61.8832 19.224L57.8032 13.608V19.224H53.6992V1.464H57.8032V11.28L61.8592 5.832H66.9232L61.3552 12.552L66.9712 19.224H61.8832Z" fill="black"/>
<path d="M86.1031 5.688C87.7671 5.688 89.0871 6.192 90.0631 7.2C91.0551 8.208 91.5511 9.608 91.5511 11.4V19.224H87.4711V11.952C87.4711 11.088 87.2391 10.424 86.7751 9.96C86.3271 9.48 85.7031 9.24 84.9031 9.24C84.1031 9.24 83.4711 9.48 83.0071 9.96C82.5591 10.424 82.3351 11.088 82.3351 11.952V19.224H78.2551V11.952C78.2551 11.088 78.0231 10.424 77.5591 9.96C77.1111 9.48 76.4871 9.24 75.6871 9.24C74.8871 9.24 74.2551 9.48 73.7911 9.96C73.3431 10.424 73.1191 11.088 73.1191 11.952V19.224H69.0151V5.832H73.1191V7.512C73.5351 6.952 74.0791 6.512 74.7511 6.192C75.4231 5.856 76.1831 5.688 77.0311 5.688C78.0391 5.688 78.9351 5.904 79.7191 6.336C80.5191 6.768 81.1431 7.384 81.5911 8.184C82.0551 7.448 82.6871 6.848 83.4871 6.384C84.2871 5.92 85.1591 5.688 86.1031 5.688Z" fill="black"/>
<path d="M118.127 15.744V19.224H116.039C114.551 19.224 113.391 18.864 112.559 18.144C111.727 17.408 111.311 16.216 111.311 14.568V9.24H109.679V5.832H111.311V2.568H115.415V5.832H118.103V9.24H115.415V14.616C115.415 15.016 115.511 15.304 115.703 15.48C115.895 15.656 116.215 15.744 116.663 15.744H118.127Z" fill="black"/>
<path d="M122.957 4.44C122.237 4.44 121.645 4.232 121.181 3.816C120.733 3.384 120.509 2.856 120.509 2.232C120.509 1.592 120.733 1.064 121.181 0.648C121.645 0.216 122.237 0 122.957 0C123.661 0 124.237 0.216 124.685 0.648C125.149 1.064 125.381 1.592 125.381 2.232C125.381 2.856 125.149 3.384 124.685 3.816C124.237 4.232 123.661 4.44 122.957 4.44ZM124.997 5.832V19.224H120.893V5.832H124.997Z" fill="black"/>
<path d="M152.372 5.688C153.94 5.688 155.188 6.2 156.116 7.224C157.06 8.232 157.532 9.624 157.532 11.4V19.224H153.452V11.952C153.452 11.056 153.22 10.36 152.756 9.864C152.292 9.368 151.668 9.12 150.884 9.12C150.1 9.12 149.476 9.368 149.012 9.864C148.548 10.36 148.316 11.056 148.316 11.952V19.224H144.212V5.832H148.316V7.608C148.732 7.016 149.292 6.552 149.996 6.216C150.7 5.864 151.492 5.688 152.372 5.688Z" fill="black"/>
<path d="M134.547 19.4159C133.235 19.4159 132.051 19.1359 130.995 18.5759C129.955 18.0159 129.131 17.2159 128.523 16.1759C127.931 15.1359 127.635 13.9199 127.635 12.5279C127.635 11.1519 127.939 9.94389 128.547 8.90389C129.155 7.84789 129.987 7.03989 131.043 6.47989C132.099 5.91989 133.283 5.63989 134.595 5.63989C135.907 5.63989 137.091 5.91989 138.147 6.47989C139.203 7.03989 140.035 7.84789 140.643 8.90389C141.251 9.94389 141.555 11.1519 141.555 12.5279C141.555 13.9039 141.243 15.1199 140.619 16.1759C140.011 17.2159 139.171 18.0159 138.099 18.5759C137.043 19.1359 135.859 19.4159 134.547 19.4159ZM134.547 15.8639C135.331 15.8639 135.995 15.5759 136.539 14.9999C137.099 14.4239 137.379 13.5999 137.379 12.5279C137.379 11.4559 137.107 10.6319 136.563 10.0559C136.035 9.47989 135.379 9.19189 134.595 9.19189C133.795 9.19189 133.131 9.47989 132.603 10.0559C132.075 10.6159 131.811 11.4399 131.811 12.5279C131.811 13.5999 132.067 14.4239 132.579 14.9999C133.107 15.5759 133.763 15.8639 134.547 15.8639Z" fill="#6889FF"/>
<path d="M100.998 19.4159C99.6859 19.4159 98.5019 19.1359 97.4459 18.5759C96.4059 18.0159 95.5819 17.2159 94.9739 16.1759C94.3819 15.1359 94.0859 13.9199 94.0859 12.5279C94.0859 11.1519 94.3899 9.94389 94.9979 8.90389C95.6059 7.84789 96.4379 7.03989 97.4939 6.47989C98.5499 5.91989 99.7339 5.63989 101.046 5.63989C102.358 5.63989 103.542 5.91989 104.598 6.47989C105.654 7.03989 106.486 7.84789 107.094 8.90389C107.702 9.94389 108.006 11.1519 108.006 12.5279C108.006 13.9039 107.694 15.1199 107.07 16.1759C106.462 17.2159 105.622 18.0159 104.55 18.5759C103.494 19.1359 102.31 19.4159 100.998 19.4159ZM100.998 15.8639C101.782 15.8639 102.446 15.5759 102.99 14.9999C103.55 14.4239 103.83 13.5999 103.83 12.5279C103.83 11.4559 103.558 10.6319 103.014 10.0559C102.486 9.47989 101.83 9.19189 101.046 9.19189C100.246 9.19189 99.5819 9.47989 99.0539 10.0559C98.5259 10.6159 98.2619 11.4399 98.2619 12.5279C98.2619 13.5999 98.5179 14.4239 99.0299 14.9999C99.5579 15.5759 100.214 15.8639 100.998 15.8639Z" fill="#FF64AE"/>
</svg>
