<svg width="24" height="24" viewBox="0 0 24 24" fill="none" xmlns="http://www.w3.org/2000/svg">
<rect x="12" y="2.40002" width="9.6" height="9.6" rx="4.8" fill="#FF64AE"/>
<path d="M15.8399 6.48C15.8399 6.7451 15.625 6.96 15.3599 6.96C15.0948 6.96 14.8799 6.7451 14.8799 6.48C14.8799 6.2149 15.0948 6 15.3599 6C15.625 6 15.8399 6.2149 15.8399 6.48Z" fill="black"/>
<path d="M18.7198 6.48C18.7198 6.7451 18.5049 6.96 18.2398 6.96C17.9747 6.96 17.7598 6.7451 17.7598 6.48C17.7598 6.2149 17.9747 6 18.2398 6C18.5049 6 18.7198 6.2149 18.7198 6.48Z" fill="black"/>
<path fill-rule="evenodd" clip-rule="evenodd" d="M18.7472 7.91909C18.8803 8.0668 18.8684 8.29443 18.7207 8.42751C17.9187 9.15009 17.0992 9.32108 16.394 9.20828C15.708 9.09856 15.1615 8.72617 14.8589 8.40819C14.7219 8.26415 14.7276 8.03628 14.8716 7.89923C15.0157 7.76219 15.2435 7.76786 15.3806 7.91191C15.595 8.13726 16.0048 8.41687 16.5077 8.49731C16.9914 8.57468 17.5935 8.474 18.2388 7.89259C18.3865 7.75951 18.6141 7.77137 18.7472 7.91909Z" fill="black"/>
<rect x="2.40039" y="12" width="9.6" height="9.6" rx="4.8" fill="#6889FF"/>
<path d="M6.24027 15.84C6.24027 16.1051 6.02537 16.32 5.76027 16.32C5.49518 16.32 5.28027 16.1051 5.28027 15.84C5.28027 15.5749 5.49518 15.36 5.76027 15.36C6.02537 15.36 6.24027 15.5749 6.24027 15.84Z" fill="black"/>
<path d="M9.12016 15.84C9.12016 16.1051 8.90525 16.32 8.64016 16.32C8.37506 16.32 8.16016 16.1051 8.16016 15.84C8.16016 15.5749 8.37506 15.36 8.64016 15.36C8.90525 15.36 9.12016 15.5749 9.12016 15.84Z" fill="black"/>
<path fill-rule="evenodd" clip-rule="evenodd" d="M9.14762 18.4809C9.2807 18.3332 9.26884 18.1056 9.12112 17.9725C8.31908 17.2499 7.49961 17.0789 6.79438 17.1917C6.1084 17.3015 5.56186 17.6739 5.25934 17.9918C5.12229 18.1359 5.12797 18.3637 5.27202 18.5008C5.41606 18.6378 5.64393 18.6322 5.78097 18.4881C5.99538 18.2628 6.40514 17.9832 6.90809 17.9027C7.39178 17.8253 7.99385 17.926 8.63919 18.5074C8.78691 18.6405 9.01454 18.6287 9.14762 18.4809Z" fill="black"/>
<rect width="9.6" height="9.6" rx="4.8" transform="matrix(-1 0 0 1 12 2.40002)" fill="#FFD54A"/>
<path d="M7.20016 5.28005C7.20016 5.54515 7.41506 5.76005 7.68016 5.76005C7.94525 5.76005 8.16016 5.54515 8.16016 5.28005C8.16016 5.01495 7.94525 4.80005 7.68016 4.80005C7.41506 4.80005 7.20016 5.01495 7.20016 5.28005Z" fill="black"/>
<path d="M4.32027 5.28005C4.32027 5.54515 4.53518 5.76005 4.80027 5.76005C5.06537 5.76005 5.28027 5.54515 5.28027 5.28005C5.28027 5.01495 5.06537 4.80005 4.80027 4.80005C4.53518 4.80005 4.32027 5.01495 4.32027 5.28005Z" fill="black"/>
<path fill-rule="evenodd" clip-rule="evenodd" d="M7.32031 7.19997C7.32031 7.00114 7.15914 6.83997 6.96031 6.83997L5.04031 6.83997C4.84149 6.83997 4.68031 7.00114 4.68031 7.19997C4.68031 7.39879 4.84149 7.55997 5.04031 7.55997L6.96031 7.55997C7.15913 7.55997 7.32031 7.39879 7.32031 7.19997Z" fill="black"/>
</svg>
