<svg width="260" height="120" viewBox="0 0 260 120" fill="none" xmlns="http://www.w3.org/2000/svg">
<rect width="260" height="120" fill="white"/>
<rect x="40" y="24" width="43.5072" height="43.5072" rx="21.7536" fill="#FF64AE"/>
<path d="M57.403 42.4905C57.403 43.692 56.429 44.6659 55.2276 44.6659C54.0262 44.6659 53.0522 43.692 53.0522 42.4905C53.0522 41.2891 54.0262 40.3152 55.2276 40.3152C56.429 40.3152 57.403 41.2891 57.403 42.4905Z" fill="black"/>
<path d="M70.4552 42.4905C70.4552 43.692 69.4813 44.6659 68.2799 44.6659C67.0784 44.6659 66.1045 43.692 66.1045 42.4905C66.1045 41.2891 67.0784 40.3152 68.2799 40.3152C69.4813 40.3152 70.4552 41.2891 70.4552 42.4905Z" fill="black"/>
<path fill-rule="evenodd" clip-rule="evenodd" d="M70.5795 49.0124C71.1826 49.6818 71.1289 50.7135 70.4594 51.3166C66.8246 54.5913 63.1107 55.3662 59.9146 54.855C56.8058 54.3578 54.3288 52.6701 52.9578 51.229C52.3367 50.5762 52.3624 49.5435 53.0152 48.9224C53.6681 48.3013 54.7008 48.327 55.3219 48.9799C56.2935 50.0012 58.1506 51.2683 60.43 51.6329C62.622 51.9835 65.3506 51.5272 68.2753 48.8923C68.9448 48.2892 69.9764 48.3429 70.5795 49.0124Z" fill="black"/>
<rect x="79.0005" y="68" width="43.5072" height="43.5072" rx="21.7536" fill="#6889FF"/>
<path d="M96.4035 85.4029C96.4035 86.6043 95.4295 87.5783 94.2281 87.5783C93.0267 87.5783 92.0527 86.6043 92.0527 85.4029C92.0527 84.2015 93.0267 83.2275 94.2281 83.2275C95.4295 83.2275 96.4035 84.2015 96.4035 85.4029Z" fill="black"/>
<path d="M109.456 85.4029C109.456 86.6043 108.482 87.5783 107.28 87.5783C106.079 87.5783 105.105 86.6043 105.105 85.4029C105.105 84.2015 106.079 83.2275 107.28 83.2275C108.482 83.2275 109.456 84.2015 109.456 85.4029Z" fill="black"/>
<path fill-rule="evenodd" clip-rule="evenodd" d="M109.58 97.3716C110.183 96.7022 110.129 95.6706 109.46 95.0675C105.825 91.7927 102.111 91.0178 98.9151 91.529C95.8062 92.0263 93.3293 93.714 91.9583 95.155C91.3372 95.8078 91.3629 96.8405 92.0157 97.4616C92.6685 98.0827 93.7013 98.057 94.3223 97.4042C95.294 96.3829 97.1511 95.1157 99.4304 94.7511C101.623 94.4005 104.351 94.8568 107.276 97.4917C107.945 98.0949 108.977 98.0411 109.58 97.3716Z" fill="black"/>
<rect x="191" y="16" width="43.5072" height="43.5072" rx="21.7536" fill="#FFD54A"/>
<path d="M212.754 29.0521C212.754 30.2535 211.78 31.2274 210.578 31.2274C209.377 31.2274 208.403 30.2535 208.403 29.0521C208.403 27.8507 209.377 26.8767 210.578 26.8767C211.78 26.8767 212.754 27.8507 212.754 29.0521Z" fill="black"/>
<path d="M225.806 29.0521C225.806 30.2535 224.832 31.2274 223.63 31.2274C222.429 31.2274 221.455 30.2535 221.455 29.0521C221.455 27.8507 222.429 26.8767 223.63 26.8767C224.832 26.8767 225.806 27.8507 225.806 29.0521Z" fill="black"/>
<path fill-rule="evenodd" clip-rule="evenodd" d="M212.21 37.7536C212.21 36.8525 212.94 36.1221 213.841 36.1221L222.543 36.1221C223.444 36.1221 224.174 36.8525 224.174 37.7536C224.174 38.6547 223.444 39.3851 222.543 39.3851L213.841 39.3851C212.94 39.3851 212.21 38.6547 212.21 37.7536Z" fill="black"/>
<path fill-rule="evenodd" clip-rule="evenodd" d="M189.226 55.754C189.362 56.4308 188.923 57.0897 188.246 57.2255C182.915 58.2959 179.777 61.6801 178.284 65.1021C180.907 67.1948 182.178 69.6422 182.154 71.7087C182.141 72.8515 181.714 73.9593 180.769 74.643C179.815 75.3337 178.591 75.4054 177.378 75.0052C175.707 74.4543 174.994 72.6612 174.795 71.0089C174.62 69.557 174.775 67.8391 175.281 66.0786C173.573 65.1675 171.99 65.2429 170.632 65.7245C169.007 66.3012 167.683 67.478 166.986 68.3711C166.562 68.9155 165.776 69.0127 165.232 68.5882C164.688 68.1637 164.59 67.3783 165.015 66.8339C165.934 65.6551 167.625 64.1385 169.796 63.3684C171.671 62.7034 173.885 62.6078 176.165 63.723C177.999 59.8003 181.695 55.9908 187.754 54.7744C188.431 54.6386 189.09 55.0771 189.226 55.754ZM177.456 67.6873C177.222 68.8183 177.174 69.8592 177.277 70.7095C177.448 72.1261 177.946 72.5603 178.161 72.631C178.832 72.8524 179.166 72.7168 179.304 72.6176C179.45 72.5114 179.648 72.2466 179.655 71.6801C179.665 70.7518 179.114 69.247 177.456 67.6873Z" fill="black"/>
<path fill-rule="evenodd" clip-rule="evenodd" d="M38.585 81.1764C38.4743 80.495 38.9369 79.8528 39.6183 79.7421C39.9425 79.6894 41.6977 78.9868 43.3699 76.2085C45.1283 73.287 45.7472 71.3337 45.834 70.862C45.9589 70.1831 46.6106 69.734 47.2895 69.8589C47.9685 69.9838 48.4176 70.6355 48.2927 71.3144C48.1308 72.1944 47.3526 74.4394 45.5118 77.4977C43.5849 80.6992 41.2769 82.0054 40.0193 82.2097C39.3378 82.3205 38.6957 81.8578 38.585 81.1764ZM46.2476 83.7448C45.6192 83.459 45.3415 82.7178 45.6274 82.0894L50.0442 72.3802C50.3301 71.7518 51.0712 71.4741 51.6996 71.76C52.328 72.0459 52.6057 72.787 52.3198 73.4154L47.903 83.1246C47.6171 83.753 46.876 84.0307 46.2476 83.7448Z" fill="black"/>
<path fill-rule="evenodd" clip-rule="evenodd" d="M34.0096 80.7797C33.7577 81.4224 33.0325 81.7394 32.3897 81.4875C31.3805 81.0922 30.4298 81.0296 29.7351 81.286C29.1263 81.5107 28.4969 82.0584 28.2066 83.434C28.0875 83.9984 28.2466 84.5929 28.6552 85.1501C29.0715 85.7177 29.6853 86.1528 30.2641 86.3464C30.665 86.4805 30.9709 86.808 31.0774 87.2171C31.1838 87.6262 31.0764 88.0613 30.7917 88.3737C30.0024 89.2401 29.4934 90.8635 30.3244 92.233C30.7835 92.9896 31.4253 93.2783 32.0661 93.3415C32.7776 93.4118 33.3803 93.1907 33.5708 93.0562C33.8888 92.8315 34.2934 92.7679 34.665 92.8841C35.0366 93.0003 35.3329 93.2831 35.4663 93.6489C35.5621 93.9116 35.9072 94.4324 36.4736 94.9257C37.0329 95.4128 37.6304 95.7171 38.1237 95.7736C39.903 95.9771 40.7668 95.3018 41.2015 94.5641C41.7077 93.7051 41.7242 92.6032 41.474 91.9656C41.2218 91.3229 41.5383 90.5975 42.181 90.3453C42.8236 90.0932 43.549 90.4097 43.8012 91.0523C44.3304 92.4007 44.2543 94.3078 43.3554 95.8333C42.3849 97.4802 40.5311 98.5653 37.8395 98.2574C36.6589 98.1223 35.6031 97.4827 34.8318 96.8111C34.4366 96.4669 34.0685 96.0727 33.7655 95.6633C33.1711 95.8271 32.4964 95.8962 31.8204 95.8294C30.5243 95.7015 29.1164 95.0614 28.1871 93.5298C27.0063 91.5839 27.2964 89.5116 28.055 88.0006C27.5176 87.6284 27.0305 87.162 26.6393 86.6286C25.9157 85.6419 25.4613 84.3355 25.7605 82.9178C26.1961 80.8536 27.3185 79.5131 28.8695 78.9407C30.3347 78.3999 31.9522 78.6311 33.3017 79.1598C33.9445 79.4116 34.2614 80.1369 34.0096 80.7797Z" fill="black"/>
</svg>
