<svg width="141" height="140" viewBox="0 0 141 140" fill="none" xmlns="http://www.w3.org/2000/svg">
<rect x="32" y="35" width="76.3" height="63" fill="white"/>
<path d="M106.83 13.4274H102.245V10.2137C102.245 7.67623 100.182 5.6001 97.6598 5.6001C95.1381 5.6001 93.0748 7.67623 93.0748 10.2137V13.4274H47.2248V10.2137C47.2248 7.67623 45.1616 5.6001 42.6398 5.6001C40.1181 5.6001 38.0548 7.67623 38.0548 10.2137V13.4274H33.4698C28.4263 13.4274 24.2998 17.5796 24.2998 22.6546V96.4728C24.2998 101.548 28.4263 105.7 33.4698 105.7H106.83C111.873 105.7 116 101.548 116 96.4728V22.6546C116 17.5796 111.873 13.4274 106.83 13.4274ZM102.245 96.4728H38.0548C35.5331 96.4728 33.4698 94.3967 33.4698 91.8592V36.4956H106.83V91.8592C106.83 94.3967 104.767 96.4728 102.245 96.4728Z" fill="#FFD54A"/>
<rect x="38.2998" y="46.8999" width="26.6" height="26.6" rx="13.3" fill="#FF64AE"/>
<path d="M48.9398 58.205C48.9398 58.9395 48.3443 59.535 47.6098 59.535C46.8752 59.535 46.2798 58.9395 46.2798 58.205C46.2798 57.4705 46.8752 56.875 47.6098 56.875C48.3443 56.875 48.9398 57.4705 48.9398 58.205Z" fill="black"/>
<path d="M56.9198 58.205C56.9198 58.9395 56.3243 59.535 55.5898 59.535C54.8552 59.535 54.2598 58.9395 54.2598 58.205C54.2598 57.4705 54.8552 56.875 55.5898 56.875C56.3243 56.875 56.9198 57.4705 56.9198 58.205Z" fill="black"/>
<path fill-rule="evenodd" clip-rule="evenodd" d="M56.9959 62.1921C57.3646 62.6014 57.3317 63.2322 56.9224 63.6009C54.7001 65.6031 52.4295 66.0768 50.4754 65.7643C48.5747 65.4603 47.0603 64.4284 46.2221 63.5474C45.8424 63.1482 45.8581 62.5169 46.2572 62.1371C46.6563 61.7574 47.2877 61.7731 47.6674 62.1723C48.2615 62.7967 49.3969 63.5714 50.7905 63.7943C52.1307 64.0087 53.799 63.7297 55.5871 62.1187C55.9964 61.75 56.6271 61.7828 56.9959 62.1921Z" fill="black"/>
<rect x="53" y="63.7002" width="26.6" height="26.6" rx="13.3" fill="#6889FF"/>
<path d="M63.64 74.3403C63.64 75.0748 63.0445 75.6703 62.31 75.6703C61.5754 75.6703 60.98 75.0748 60.98 74.3403C60.98 73.6057 61.5754 73.0103 62.31 73.0103C63.0445 73.0103 63.64 73.6057 63.64 74.3403Z" fill="black"/>
<path d="M71.62 74.3403C71.62 75.0748 71.0245 75.6703 70.29 75.6703C69.5554 75.6703 68.96 75.0748 68.96 74.3403C68.96 73.6057 69.5554 73.0103 70.29 73.0103C71.0245 73.0103 71.62 73.6057 71.62 74.3403Z" fill="black"/>
<path fill-rule="evenodd" clip-rule="evenodd" d="M71.6961 81.658C72.0648 81.2487 72.0319 80.6179 71.6226 80.2492C69.4003 78.247 67.1297 77.7733 65.1756 78.0858C63.2749 78.3898 61.7605 79.4217 60.9223 80.3027C60.5426 80.7019 60.5583 81.3332 60.9574 81.713C61.3565 82.0927 61.9879 82.077 62.3676 81.6778C62.9617 81.0534 64.0971 80.2787 65.4907 80.0558C66.8309 79.8414 68.4991 80.1204 70.2873 81.7314C70.6966 82.1001 71.3273 82.0673 71.6961 81.658Z" fill="black"/>
<rect x="75.3999" y="42" width="26.6" height="26.6" rx="13.3" fill="#FFD54A"/>
<path d="M88.7 49.9799C88.7 50.7144 88.1046 51.3099 87.37 51.3099C86.6355 51.3099 86.04 50.7144 86.04 49.9799C86.04 49.2454 86.6355 48.6499 87.37 48.6499C88.1046 48.6499 88.7 49.2454 88.7 49.9799Z" fill="black"/>
<path d="M96.68 49.9799C96.68 50.7144 96.0846 51.3099 95.35 51.3099C94.6155 51.3099 94.02 50.7144 94.02 49.9799C94.02 49.2454 94.6155 48.6499 95.35 48.6499C96.0846 48.6499 96.68 49.2454 96.68 49.9799Z" fill="black"/>
<path fill-rule="evenodd" clip-rule="evenodd" d="M88.3672 55.3002C88.3672 54.7493 88.8138 54.3027 89.3647 54.3027L94.6847 54.3027C95.2356 54.3027 95.6822 54.7493 95.6822 55.3002C95.6822 55.8511 95.2356 56.2977 94.6847 56.2977L89.3647 56.2977C88.8138 56.2977 88.3672 55.8511 88.3672 55.3002Z" fill="black"/>
<path d="M29.981 121.682L27.4442 131.057H24.269L22.7906 124.975L21.2618 131.057H18.1034L15.5498 121.682H18.4226L19.7498 128.386L21.329 121.682H24.3698L25.9658 128.352L27.2762 121.682H29.981Z" fill="black"/>
<path d="M40.2493 126.218C40.2493 126.487 40.2325 126.767 40.1989 127.058H33.6973C33.7421 127.641 33.9269 128.089 34.2517 128.402C34.5877 128.705 34.9965 128.856 35.4781 128.856C36.1949 128.856 36.6933 128.554 36.9733 127.949H40.0309C39.8741 128.565 39.5885 129.119 39.1741 129.612C38.7709 130.105 38.2613 130.491 37.6453 130.771C37.0293 131.051 36.3405 131.191 35.5789 131.191C34.6605 131.191 33.8429 130.995 33.1261 130.603C32.4093 130.211 31.8493 129.651 31.4461 128.923C31.0429 128.195 30.8413 127.344 30.8413 126.37C30.8413 125.395 31.0373 124.544 31.4293 123.816C31.8325 123.088 32.3925 122.528 33.1093 122.136C33.8261 121.744 34.6493 121.548 35.5789 121.548C36.4861 121.548 37.2925 121.738 37.9981 122.119C38.7037 122.5 39.2525 123.043 39.6445 123.749C40.0477 124.454 40.2493 125.278 40.2493 126.218ZM37.3093 125.462C37.3093 124.97 37.1413 124.578 36.8053 124.286C36.4693 123.995 36.0493 123.85 35.5453 123.85C35.0637 123.85 34.6549 123.99 34.3189 124.27C33.9941 124.55 33.7925 124.947 33.7141 125.462H37.3093Z" fill="black"/>
<path d="M50.9377 126.218C50.9377 126.487 50.9209 126.767 50.8873 127.058H44.3857C44.4305 127.641 44.6153 128.089 44.9401 128.402C45.2761 128.705 45.6849 128.856 46.1665 128.856C46.8833 128.856 47.3817 128.554 47.6617 127.949H50.7193C50.5625 128.565 50.2769 129.119 49.8625 129.612C49.4593 130.105 48.9497 130.491 48.3337 130.771C47.7177 131.051 47.0289 131.191 46.2673 131.191C45.3489 131.191 44.5313 130.995 43.8145 130.603C43.0977 130.211 42.5377 129.651 42.1345 128.923C41.7313 128.195 41.5297 127.344 41.5297 126.37C41.5297 125.395 41.7257 124.544 42.1177 123.816C42.5209 123.088 43.0809 122.528 43.7977 122.136C44.5145 121.744 45.3377 121.548 46.2673 121.548C47.1745 121.548 47.9809 121.738 48.6865 122.119C49.3921 122.5 49.9409 123.043 50.3329 123.749C50.7361 124.454 50.9377 125.278 50.9377 126.218ZM47.9977 125.462C47.9977 124.97 47.8297 124.578 47.4937 124.286C47.1577 123.995 46.7377 123.85 46.2337 123.85C45.7521 123.85 45.3433 123.99 45.0073 124.27C44.6825 124.55 44.4809 124.947 44.4025 125.462H47.9977Z" fill="black"/>
<path d="M58.518 131.057L55.662 127.126V131.057H52.7892V118.625H55.662V125.496L58.5012 121.682H62.046L58.1484 126.386L62.0796 131.057H58.518Z" fill="black"/>
<path d="M75.472 121.582C76.6368 121.582 77.5608 121.934 78.244 122.64C78.9384 123.346 79.2856 124.326 79.2856 125.58V131.057H76.4296V125.966C76.4296 125.362 76.2672 124.897 75.9424 124.572C75.6288 124.236 75.192 124.068 74.632 124.068C74.072 124.068 73.6296 124.236 73.3048 124.572C72.9912 124.897 72.8344 125.362 72.8344 125.966V131.057H69.9784V125.966C69.9784 125.362 69.816 124.897 69.4912 124.572C69.1776 124.236 68.7408 124.068 68.1808 124.068C67.6208 124.068 67.1784 124.236 66.8536 124.572C66.54 124.897 66.3832 125.362 66.3832 125.966V131.057H63.5104V121.682H66.3832V122.858C66.6744 122.466 67.0552 122.158 67.5256 121.934C67.996 121.699 68.528 121.582 69.1216 121.582C69.8272 121.582 70.4544 121.733 71.0032 122.035C71.5632 122.338 72 122.769 72.3136 123.329C72.6384 122.814 73.0808 122.394 73.6408 122.069C74.2008 121.744 74.8112 121.582 75.472 121.582Z" fill="black"/>
<path d="M97.8884 128.621V131.057H96.4268C95.3852 131.057 94.5732 130.805 93.9908 130.301C93.4084 129.786 93.1172 128.951 93.1172 127.798V124.068H91.9748V121.682H93.1172V119.398H95.99V121.682H97.8716V124.068H95.99V127.831C95.99 128.111 96.0572 128.313 96.1916 128.436C96.326 128.559 96.55 128.621 96.8636 128.621H97.8884Z" fill="black"/>
<path d="M101.269 120.708C100.765 120.708 100.351 120.562 100.026 120.271C99.7126 119.969 99.5558 119.599 99.5558 119.162C99.5558 118.714 99.7126 118.345 100.026 118.054C100.351 117.751 100.765 117.6 101.269 117.6C101.762 117.6 102.165 117.751 102.479 118.054C102.804 118.345 102.966 118.714 102.966 119.162C102.966 119.599 102.804 119.969 102.479 120.271C102.165 120.562 101.762 120.708 101.269 120.708ZM102.697 121.682V131.057H99.8246V121.682H102.697Z" fill="black"/>
<path d="M121.86 121.582C122.958 121.582 123.831 121.94 124.481 122.657C125.142 123.362 125.472 124.337 125.472 125.58V131.057H122.616V125.966C122.616 125.339 122.454 124.852 122.129 124.505C121.804 124.158 121.367 123.984 120.819 123.984C120.27 123.984 119.833 124.158 119.508 124.505C119.183 124.852 119.021 125.339 119.021 125.966V131.057H116.148V121.682H119.021V122.926C119.312 122.511 119.704 122.186 120.197 121.951C120.69 121.705 121.244 121.582 121.86 121.582Z" fill="black"/>
<path d="M109.382 131.191C108.464 131.191 107.635 130.995 106.896 130.603C106.168 130.211 105.591 129.651 105.166 128.923C104.751 128.195 104.544 127.344 104.544 126.37C104.544 125.406 104.757 124.561 105.182 123.833C105.608 123.094 106.19 122.528 106.93 122.136C107.669 121.744 108.498 121.548 109.416 121.548C110.334 121.548 111.163 121.744 111.902 122.136C112.642 122.528 113.224 123.094 113.65 123.833C114.075 124.561 114.288 125.406 114.288 126.37C114.288 127.333 114.07 128.184 113.633 128.923C113.207 129.651 112.619 130.211 111.869 130.603C111.13 130.995 110.301 131.191 109.382 131.191ZM109.382 128.705C109.931 128.705 110.396 128.503 110.777 128.1C111.169 127.697 111.365 127.12 111.365 126.37C111.365 125.619 111.174 125.042 110.794 124.639C110.424 124.236 109.965 124.034 109.416 124.034C108.856 124.034 108.391 124.236 108.022 124.639C107.652 125.031 107.467 125.608 107.467 126.37C107.467 127.12 107.646 127.697 108.005 128.1C108.374 128.503 108.834 128.705 109.382 128.705Z" fill="#6889FF"/>
<path d="M85.8985 131.191C84.9801 131.191 84.1513 130.995 83.4121 130.603C82.6841 130.211 82.1073 129.651 81.6817 128.923C81.2673 128.195 81.0601 127.344 81.0601 126.37C81.0601 125.406 81.2729 124.561 81.6985 123.833C82.1241 123.094 82.7065 122.528 83.4457 122.136C84.1849 121.744 85.0137 121.548 85.9321 121.548C86.8505 121.548 87.6793 121.744 88.4185 122.136C89.1577 122.528 89.7401 123.094 90.1657 123.833C90.5913 124.561 90.8041 125.406 90.8041 126.37C90.8041 127.333 90.5857 128.184 90.1489 128.923C89.7233 129.651 89.1353 130.211 88.3849 130.603C87.6457 130.995 86.8169 131.191 85.8985 131.191ZM85.8985 128.705C86.4473 128.705 86.9121 128.503 87.2929 128.1C87.6849 127.697 87.8809 127.12 87.8809 126.37C87.8809 125.619 87.6905 125.042 87.3097 124.639C86.9401 124.236 86.4809 124.034 85.9321 124.034C85.3721 124.034 84.9073 124.236 84.5377 124.639C84.1681 125.031 83.9833 125.608 83.9833 126.37C83.9833 127.12 84.1625 127.697 84.5209 128.1C84.8905 128.503 85.3497 128.705 85.8985 128.705Z" fill="#FF64AE"/>
</svg>
