<svg width="300" height="120" viewBox="0 0 300 120" fill="none" xmlns="http://www.w3.org/2000/svg">
<rect width="300" height="120" fill="white"/>
<rect x="60" y="24" width="43.5072" height="43.5072" rx="21.7536" fill="#FF64AE"/>
<path d="M77.403 42.4905C77.403 43.692 76.429 44.6659 75.2276 44.6659C74.0262 44.6659 73.0522 43.692 73.0522 42.4905C73.0522 41.2891 74.0262 40.3152 75.2276 40.3152C76.429 40.3152 77.403 41.2891 77.403 42.4905Z" fill="black"/>
<path d="M90.4552 42.4905C90.4552 43.692 89.4813 44.6659 88.2799 44.6659C87.0784 44.6659 86.1045 43.692 86.1045 42.4905C86.1045 41.2891 87.0784 40.3152 88.2799 40.3152C89.4813 40.3152 90.4552 41.2891 90.4552 42.4905Z" fill="black"/>
<path fill-rule="evenodd" clip-rule="evenodd" d="M90.5795 49.0124C91.1826 49.6818 91.1289 50.7135 90.4594 51.3166C86.8246 54.5913 83.1107 55.3662 79.9146 54.855C76.8058 54.3578 74.3288 52.6701 72.9578 51.229C72.3367 50.5762 72.3624 49.5435 73.0152 48.9224C73.6681 48.3013 74.7008 48.327 75.3219 48.9799C76.2935 50.0012 78.1506 51.2683 80.43 51.6329C82.622 51.9835 85.3506 51.5272 88.2753 48.8923C88.9448 48.2892 89.9764 48.3429 90.5795 49.0124Z" fill="black"/>
<rect x="99" y="68" width="43.5072" height="43.5072" rx="21.7536" fill="#6889FF"/>
<path d="M116.403 85.4029C116.403 86.6043 115.429 87.5783 114.228 87.5783C113.026 87.5783 112.052 86.6043 112.052 85.4029C112.052 84.2015 113.026 83.2275 114.228 83.2275C115.429 83.2275 116.403 84.2015 116.403 85.4029Z" fill="black"/>
<path d="M129.455 85.4029C129.455 86.6043 128.481 87.5783 127.28 87.5783C126.078 87.5783 125.104 86.6043 125.104 85.4029C125.104 84.2015 126.078 83.2275 127.28 83.2275C128.481 83.2275 129.455 84.2015 129.455 85.4029Z" fill="black"/>
<path fill-rule="evenodd" clip-rule="evenodd" d="M129.58 97.3716C130.183 96.7022 130.129 95.6706 129.459 95.0675C125.825 91.7927 122.111 91.0178 118.915 91.529C115.806 92.0263 113.329 93.714 111.958 95.155C111.337 95.8078 111.362 96.8405 112.015 97.4616C112.668 98.0827 113.701 98.057 114.322 97.4042C115.294 96.3829 117.151 95.1157 119.43 94.7511C121.622 94.4005 124.351 94.8568 127.275 97.4917C127.945 98.0949 128.976 98.0411 129.58 97.3716Z" fill="black"/>
<rect x="211" y="16" width="43.5072" height="43.5072" rx="21.7536" fill="#FFD54A"/>
<path d="M232.754 29.0521C232.754 30.2535 231.78 31.2274 230.578 31.2274C229.377 31.2274 228.403 30.2535 228.403 29.0521C228.403 27.8507 229.377 26.8767 230.578 26.8767C231.78 26.8767 232.754 27.8507 232.754 29.0521Z" fill="black"/>
<path d="M245.806 29.0521C245.806 30.2535 244.832 31.2274 243.63 31.2274C242.429 31.2274 241.455 30.2535 241.455 29.0521C241.455 27.8507 242.429 26.8767 243.63 26.8767C244.832 26.8767 245.806 27.8507 245.806 29.0521Z" fill="black"/>
<path fill-rule="evenodd" clip-rule="evenodd" d="M232.21 37.7536C232.21 36.8525 232.94 36.1221 233.841 36.1221L242.543 36.1221C243.444 36.1221 244.174 36.8525 244.174 37.7536C244.174 38.6547 243.444 39.3851 242.543 39.3851L233.841 39.3851C232.94 39.3851 232.21 38.6547 232.21 37.7536Z" fill="black"/>
<path d="M186 67.6025C187.616 65.5306 192.031 62.2156 196.77 65.5306C202.693 69.6743 201.538 75.0612 197.769 73.8181C193.999 72.575 195.615 58.4862 208 56" stroke="black" stroke-width="2.5" stroke-linecap="round" stroke-linejoin="round"/>
<path d="M66.7647 82.607L71.1816 72.8978M59.8183 80.9759C60.6092 80.8474 62.6408 79.843 64.4404 76.8531C66.24 73.8632 66.9385 71.7641 67.0629 71.0882" stroke="black" stroke-width="2.5" stroke-linecap="round" stroke-linejoin="round"/>
<path d="M52.8453 80.3237C50.4866 79.3996 47.709 79.7362 46.9831 83.1759C46.5648 85.158 48.2099 86.9777 49.8672 87.5319C48.8304 88.6701 48.0504 90.8957 49.2553 92.8814C50.6437 95.1697 53.3549 94.7388 54.2915 94.0772C54.6746 95.1276 56.3073 96.824 57.9812 97.0155C62.452 97.5269 63.4165 93.4949 62.6372 91.509" stroke="black" stroke-width="2.5" stroke-linecap="round" stroke-linejoin="round"/>
</svg>
