<svg width="260" height="120" viewBox="0 0 260 120" fill="none" xmlns="http://www.w3.org/2000/svg">
<rect width="260" height="120" fill="white"/>
<rect x="50" y="53" width="43.5072" height="43.5072" rx="21.7536" fill="#FF64AE"/>
<path d="M67.4025 71.4905C67.4025 72.692 66.4285 73.6659 65.2271 73.6659C64.0257 73.6659 63.0518 72.692 63.0518 71.4905C63.0518 70.2891 64.0257 69.3152 65.2271 69.3152C66.4285 69.3152 67.4025 70.2891 67.4025 71.4905Z" fill="black"/>
<path d="M80.4552 71.4905C80.4552 72.692 79.4813 73.6659 78.2799 73.6659C77.0784 73.6659 76.1045 72.692 76.1045 71.4905C76.1045 70.2891 77.0784 69.3152 78.2799 69.3152C79.4813 69.3152 80.4552 70.2891 80.4552 71.4905Z" fill="black"/>
<path fill-rule="evenodd" clip-rule="evenodd" d="M80.58 78.0124C81.1831 78.6818 81.1293 79.7135 80.4599 80.3166C76.8251 83.5913 73.1112 84.3662 69.9151 83.855C66.8062 83.3578 64.3293 81.6701 62.9583 80.229C62.3372 79.5762 62.3629 78.5435 63.0157 77.9224C63.6685 77.3013 64.7013 77.327 65.3223 77.9799C66.294 79.0012 68.1511 80.2683 70.4304 80.6329C72.6225 80.9835 75.3511 80.5272 78.2758 77.8923C78.9452 77.2892 79.9769 77.3429 80.58 78.0124Z" fill="black"/>
<rect x="139" y="54" width="43.5072" height="43.5072" rx="21.7536" fill="#6889FF"/>
<path d="M156.402 71.4029C156.402 72.6043 155.429 73.5783 154.227 73.5783C153.026 73.5783 152.052 72.6043 152.052 71.4029C152.052 70.2015 153.026 69.2275 154.227 69.2275C155.429 69.2275 156.402 70.2015 156.402 71.4029Z" fill="black"/>
<path d="M169.455 71.4029C169.455 72.6043 168.481 73.5783 167.28 73.5783C166.078 73.5783 165.104 72.6043 165.104 71.4029C165.104 70.2015 166.078 69.2275 167.28 69.2275C168.481 69.2275 169.455 70.2015 169.455 71.4029Z" fill="black"/>
<path fill-rule="evenodd" clip-rule="evenodd" d="M169.58 83.3716C170.183 82.7022 170.129 81.6706 169.46 81.0675C165.825 77.7927 162.111 77.0178 158.915 77.529C155.806 78.0263 153.329 79.714 151.958 81.155C151.337 81.8078 151.363 82.8405 152.016 83.4616C152.669 84.0827 153.701 84.057 154.322 83.4042C155.294 82.3829 157.151 81.1157 159.43 80.7511C161.623 80.4005 164.351 80.8568 167.276 83.4917C167.945 84.0949 168.977 84.0411 169.58 83.3716Z" fill="black"/>
<rect x="76" y="30" width="43.5072" height="43.5072" rx="21.7536" fill="#FFD54A"/>
<path d="M97.754 43.0521C97.754 44.2535 96.7801 45.2274 95.5787 45.2274C94.3773 45.2274 93.4033 44.2535 93.4033 43.0521C93.4033 41.8507 94.3773 40.8767 95.5787 40.8767C96.7801 40.8767 97.754 41.8507 97.754 43.0521Z" fill="black"/>
<path d="M110.806 43.0521C110.806 44.2535 109.832 45.2274 108.63 45.2274C107.429 45.2274 106.455 44.2535 106.455 43.0521C106.455 41.8507 107.429 40.8767 108.63 40.8767C109.832 40.8767 110.806 41.8507 110.806 43.0521Z" fill="black"/>
<path fill-rule="evenodd" clip-rule="evenodd" d="M97.21 51.7536C97.21 50.8525 97.9404 50.1221 98.8415 50.1221L107.543 50.1221C108.444 50.1221 109.174 50.8525 109.174 51.7536C109.174 52.6547 108.444 53.3851 107.543 53.3851L98.8415 53.3851C97.9404 53.3851 97.21 52.6547 97.21 51.7536Z" fill="black"/>
<path d="M231.53 19.8273H226.945V16.6136C226.945 14.0761 224.882 12 222.36 12C219.838 12 217.775 14.0761 217.775 16.6136V19.8273H171.925V16.6136C171.925 14.0761 169.862 12 167.34 12C164.818 12 162.755 14.0761 162.755 16.6136V19.8273H158.17C153.127 19.8273 149 23.9795 149 29.0545V102.873C149 107.948 153.127 112.1 158.17 112.1H231.53C236.574 112.1 240.7 107.948 240.7 102.873V29.0545C240.7 23.9795 236.574 19.8273 231.53 19.8273ZM226.945 102.873H162.755C160.233 102.873 158.17 100.797 158.17 98.2591V42.8955H231.53V98.2591C231.53 100.797 229.467 102.873 226.945 102.873Z" fill="#FFD54A"/>
<path fill-rule="evenodd" clip-rule="evenodd" d="M42.4755 88.0042C42.6114 88.6811 42.1728 89.3399 41.496 89.4758C36.1643 90.5461 33.0268 93.9304 31.5339 97.3523C34.1563 99.4451 35.4276 101.892 35.404 103.959C35.3909 105.102 34.9635 106.21 34.0186 106.893C33.0641 107.584 31.8406 107.656 30.6272 107.255C28.9568 106.705 28.2438 104.911 28.0444 103.259C27.8693 101.807 28.0248 100.089 28.5301 98.3288C26.8228 97.4178 25.2395 97.4931 23.8816 97.9748C22.2561 98.5514 20.9322 99.7283 20.2358 100.621C19.8113 101.166 19.0259 101.263 18.4814 100.838C17.937 100.414 17.8398 99.6285 18.2643 99.0841C19.1834 97.9053 20.875 96.3887 23.0458 95.6186C24.9205 94.9536 27.1347 94.858 29.4143 95.9732C31.2489 92.0506 34.9446 88.2411 41.0039 87.0247C41.6808 86.8888 42.3396 87.3274 42.4755 88.0042ZM30.7058 99.9375C30.4713 101.069 30.4239 102.109 30.5265 102.96C30.6973 104.376 31.1959 104.811 31.4102 104.881C32.0815 105.103 32.4159 104.967 32.553 104.868C32.6998 104.762 32.8977 104.497 32.9041 103.93C32.9147 103.002 32.3634 101.497 30.7058 99.9375Z" fill="black"/>
<path fill-rule="evenodd" clip-rule="evenodd" d="M186.162 53.3679C185.601 54.0595 185.361 55.2226 185.579 56.5853C185.688 57.267 185.223 57.9079 184.542 58.0169C183.86 58.1259 183.219 57.6617 183.11 56.98C182.828 55.2163 183.051 53.2351 184.221 51.7927C185.461 50.2639 187.491 49.6636 190.089 50.1834C191.607 50.487 192.903 51.2651 193.736 52.4326C194.577 53.6091 194.883 55.0908 194.57 56.6543C194.299 58.0081 193.474 59.0786 192.64 59.8046C192.313 60.0893 191.954 60.3471 191.587 60.5599L192.955 63.2091C193.272 63.8226 193.031 64.5766 192.418 64.8933C191.805 65.2101 191.05 64.9696 190.734 64.3562L188.734 60.4826C188.546 60.1198 188.548 59.6885 188.738 59.3272C188.928 58.9659 189.282 58.7201 189.688 58.6689C189.853 58.648 190.405 58.4357 190.999 57.9188C191.564 57.4264 191.989 56.8101 192.119 56.164C192.306 55.2274 192.112 54.4591 191.702 53.8857C191.286 53.3032 190.581 52.8313 189.599 52.6348C187.623 52.2395 186.653 52.7628 186.162 53.3679ZM193.344 65.5327C194.035 65.5327 194.594 66.0923 194.594 66.7827V67.2827C194.594 67.973 194.035 68.5327 193.344 68.5327C192.654 68.5327 192.094 67.973 192.094 67.2827V66.7827C192.094 66.0923 192.654 65.5327 193.344 65.5327Z" fill="black"/>
</svg>
